<?xml version="1.0" encoding="UTF-8"?>
<svg version="1.1" xmlns="http://www.w3.org/2000/svg" width="310" height="152">
<path d="M0 0 C2.09765625 0.34765625 2.09765625 0.34765625 4.16015625 1.97265625 C5.40276848 5.12060723 5.63627862 6.98126647 5.09765625 10.34765625 C3.58041592 12.49578327 1.83934374 14.36896698 0.09765625 16.34765625 C1.91098409 20.54750342 3.72580402 24.74670146 5.54199219 28.9453125 C6.15926208 30.37287057 6.77612832 31.80060324 7.39257812 33.22851562 C8.28018091 35.28431821 9.16924712 37.33948256 10.05859375 39.39453125 C10.46964859 40.34788361 10.46964859 40.34788361 10.88900757 41.32049561 C12.21207828 44.37397213 13.56800805 47.39162725 15.09765625 50.34765625 C18.9106142 47.50662876 22.71181084 44.65751639 26.453125 41.72265625 C27.03360596 41.26938965 27.61408691 40.81612305 28.2121582 40.34912109 C29.37913768 39.4367053 30.54308631 38.52039877 31.70385742 37.60009766 C35.87427645 34.34765625 35.87427645 34.34765625 38.09765625 34.34765625 C38.01515625 33.25453125 37.93265625 32.16140625 37.84765625 31.03515625 C38.09765625 27.34765625 38.09765625 27.34765625 39.78515625 25.41015625 C42.58914428 24.12183743 44.05405269 23.73893554 47.09765625 24.34765625 C49.47265625 26.53515625 49.47265625 26.53515625 51.09765625 29.34765625 C51.16015625 31.91015625 51.16015625 31.91015625 50.09765625 34.34765625 C47.57554072 36.67065739 44.94975768 38.44625529 42.09765625 40.34765625 C41.13102533 42.12475915 41.13102533 42.12475915 40.44360352 44.23071289 C40.1564296 45.02816422 39.86925568 45.82561554 39.57337952 46.64723206 C39.2733049 47.5087236 38.97323029 48.37021515 38.6640625 49.2578125 C38.00876338 51.06976992 37.35315501 52.88161553 36.69726562 54.69335938 C35.67369986 57.5577184 34.65534835 60.42378344 33.64331055 63.29223633 C32.66381355 66.05668936 31.66510684 68.813603 30.6640625 71.5703125 C30.36601212 72.43382828 30.06796173 73.29734406 29.76087952 74.18702698 C29.47055344 74.98132614 29.18022736 75.77562531 28.88110352 76.59399414 C28.63256119 77.29633682 28.38401886 77.9986795 28.12794495 78.7223053 C27.09765625 80.34765625 27.09765625 80.34765625 24.9861908 81.08226013 C24.3629744 81.16984085 23.739758 81.25742157 23.09765625 81.34765625 C20.0594837 77.05458635 17.83607591 72.83211042 15.84765625 67.97265625 C15.57953125 67.33199219 15.31140625 66.69132812 15.03515625 66.03125 C14.38369352 64.47239275 13.73985953 62.9103509 13.09765625 61.34765625 C12.47890625 61.65703125 11.86015625 61.96640625 11.22265625 62.28515625 C9.84765625 62.97265625 8.47265625 63.66015625 7.09765625 64.34765625 C7.09765625 65.99765625 7.09765625 67.64765625 7.09765625 69.34765625 C7.90203125 69.57453125 8.70640625 69.80140625 9.53515625 70.03515625 C12.09765625 71.34765625 12.09765625 71.34765625 13.09765625 73.72265625 C13.09765625 76.34765625 13.09765625 76.34765625 11.84765625 78.59765625 C8.03375215 82.41156035 2.81299938 81.53136165 -2.21484375 81.53515625 C-3.05724609 81.54740234 -3.89964844 81.55964844 -4.76757812 81.57226562 C-9.50420862 81.58337578 -13.52656006 81.38968864 -17.90234375 79.34765625 C-19.90234375 76.34765625 -19.90234375 76.34765625 -19.71484375 72.84765625 C-18.6470246 68.24781992 -18.6470246 68.24781992 -15.90234375 66.34765625 C-14.91234375 66.01765625 -13.92234375 65.68765625 -12.90234375 65.34765625 C-15.9956227 62.37090166 -15.9956227 62.37090166 -19.90234375 61.34765625 C-22.87234375 67.94765625 -25.84234375 74.54765625 -28.90234375 81.34765625 C-30.55234375 81.01765625 -32.20234375 80.68765625 -33.90234375 80.34765625 C-35.29272461 78.00952148 -35.29272461 78.00952148 -36.3671875 74.90625 C-36.77171143 73.77179443 -37.17623535 72.63733887 -37.59301758 71.46850586 C-38.00447021 70.25300049 -38.41592285 69.03749512 -38.83984375 67.78515625 C-39.27514404 66.56127197 -39.71044434 65.3373877 -40.15893555 64.07641602 C-41.75881859 59.57349302 -43.31869196 55.05764319 -44.86230469 50.53515625 C-45.40016783 48.96322791 -45.94418514 47.39338213 -46.49633789 45.82641602 C-47.16674074 43.92181587 -47.81097052 42.0080591 -48.453125 40.09375 C-50.21407408 36.75696508 -51.40790602 36.46432077 -54.90234375 35.34765625 C-56.90234375 32.34765625 -56.90234375 32.34765625 -56.83984375 29.34765625 C-55.90234375 26.34765625 -55.90234375 26.34765625 -53.65234375 24.34765625 C-50.90234375 23.34765625 -50.90234375 23.34765625 -48.21484375 23.97265625 C-45.90234375 25.34765625 -45.90234375 25.34765625 -43.90234375 28.34765625 C-44.27734375 31.53515625 -44.27734375 31.53515625 -44.90234375 34.34765625 C-43.86400391 34.67636719 -43.86400391 34.67636719 -42.8046875 35.01171875 C-39.16660095 36.68631579 -36.42887676 39.08796024 -33.46484375 41.72265625 C-29.43824053 45.27024071 -25.43433902 48.46303784 -20.90234375 51.34765625 C-20.33386719 49.51847656 -20.33386719 49.51847656 -19.75390625 47.65234375 C-17.67417232 41.41314195 -14.96685076 35.46801562 -12.27734375 29.47265625 C-11.28402304 27.24659907 -10.29178321 25.02005917 -9.30078125 22.79296875 C-8.86427246 21.81859863 -8.42776367 20.84422852 -7.97802734 19.84033203 C-6.83660432 17.29300441 -6.83660432 17.29300441 -5.90234375 14.34765625 C-6.89234375 14.01765625 -7.88234375 13.68765625 -8.90234375 13.34765625 C-10.78734766 10.80290097 -10.91023033 9.47647044 -10.71484375 6.28515625 C-9.02869164 0.18906785 -5.80294159 -0.21702058 0 0 Z M-3.90234375 23.34765625 C-5.78698012 27.39774095 -7.65619192 31.45448129 -9.51147461 35.51806641 C-10.14465495 36.89922649 -10.78199885 38.27848577 -11.42358398 39.65576172 C-12.34551608 41.63673742 -13.25221942 43.62408429 -14.15625 45.61328125 C-14.70611572 46.80727539 -15.25598145 48.00126953 -15.82250977 49.23144531 C-16.88409587 52.29499607 -17.25227524 53.45686004 -15.90234375 56.34765625 C-14.06698038 58.11614361 -14.06698038 58.11614361 -11.83984375 59.59765625 C-11.10636719 60.1184375 -10.37289062 60.63921875 -9.6171875 61.17578125 C-8.76833984 61.75585938 -8.76833984 61.75585938 -7.90234375 62.34765625 C-6.91234375 61.85265625 -6.91234375 61.85265625 -5.90234375 61.34765625 C-4.52589278 61.43047177 -3.15087291 61.53811795 -1.77734375 61.66015625 C3.9012776 61.77980305 7.0498037 59.0535921 11.09765625 55.34765625 C8.27150787 47.65727172 5.19823437 40.10064326 1.91015625 32.59765625 C1.56533203 31.79924316 1.22050781 31.00083008 0.86523438 30.17822266 C-0.6857311 26.05107954 -0.6857311 26.05107954 -3.90234375 23.34765625 Z M-41.90234375 42.34765625 C-40.0079086 49.14533531 -37.74036322 55.77758231 -35.33984375 62.41015625 C-35.0348999 63.26778564 -34.72995605 64.12541504 -34.41577148 65.0090332 C-34.12130127 65.81300537 -33.82683105 66.61697754 -33.5234375 67.4453125 C-33.25974365 68.17242432 -32.9960498 68.89953613 -32.72436523 69.64868164 C-32.02138507 71.54245307 -32.02138507 71.54245307 -29.90234375 72.34765625 C-28.89564335 70.07958421 -27.89682609 67.80857871 -26.90234375 65.53515625 C-26.61617187 64.89255859 -26.33 64.24996094 -26.03515625 63.58789062 C-24.76523334 60.67009156 -23.90234375 58.56499911 -23.90234375 55.34765625 C-25.92730182 53.54505814 -27.91264851 51.94473582 -30.08984375 50.34765625 C-30.66798828 49.909375 -31.24613281 49.47109375 -31.84179688 49.01953125 C-35.08739673 46.58441452 -38.37586138 44.36658401 -41.90234375 42.34765625 Z M34.09765625 42.34765625 C33.4317749 42.88507446 33.4317749 42.88507446 32.75244141 43.43334961 C30.74404228 45.05252614 28.73338213 46.66887021 26.72265625 48.28515625 C25.67464844 49.13110352 25.67464844 49.13110352 24.60546875 49.99414062 C23.93515625 50.53232422 23.26484375 51.07050781 22.57421875 51.625 C21.95627441 52.12249756 21.33833008 52.61999512 20.70166016 53.13256836 C19.09765625 54.34765625 19.09765625 54.34765625 17.09765625 55.34765625 C17.72582123 59.29715329 18.96220915 62.54657653 20.66015625 66.16015625 C21.11519531 67.13597656 21.57023437 68.11179687 22.0390625 69.1171875 C22.38839844 69.85324219 22.73773438 70.58929688 23.09765625 71.34765625 C23.75765625 71.34765625 24.41765625 71.34765625 25.09765625 71.34765625 C26.54985859 67.5426963 27.9920741 63.73411939 29.42504883 59.921875 C29.91416222 58.62493666 30.40601565 57.32902829 30.90063477 56.03417969 C31.61019012 54.17524429 32.30916423 52.31228081 33.0078125 50.44921875 C33.43199463 49.32854004 33.85617676 48.20786133 34.29321289 47.05322266 C35.41425494 44.41120621 35.41425494 44.41120621 34.09765625 42.34765625 Z " fill="#1989BD" transform="translate(97.90234375,-0.34765625)"/>
<path d="M0 0 C6.57923092 5.19219157 10.55469415 12.22931794 11.78125 20.52734375 C12.38403448 31.47559217 11.76763866 40.6838138 4.78125 49.52734375 C-1.97954535 56.76588266 -8.88758214 59.82859188 -18.7109375 60.51953125 C-27.75192257 60.54769631 -34.37024108 56.93409963 -40.9765625 50.9296875 C-47.49688166 43.99980055 -50.3190069 34.93716987 -50.21875 25.52734375 C-49.54149952 15.48386317 -45.70250094 7.53657369 -38.40625 0.58984375 C-27.18855445 -8.38431269 -11.70055007 -7.76603411 0 0 Z M-30.828125 11.890625 C-35.70399247 17.44050944 -36.63344444 22.67262951 -36.4609375 29.8125 C-35.94891281 35.55213162 -33.93159955 39.13482713 -29.71875 42.90234375 C-25.78855298 46.12579481 -22.45378206 46.83211498 -17.33984375 46.73828125 C-12.31769221 46.23884077 -8.60621819 44.2852584 -5.34375 40.52734375 C-0.91525948 34.27535714 -1.53760773 26.88214959 -2.21875 19.52734375 C-3.75671597 15.1814731 -6.03512095 12.51903295 -9.53125 9.58984375 C-16.77775961 6.7249446 -24.61287601 6.62576603 -30.828125 11.890625 Z " fill="#FDFDFD" transform="translate(254.21875,77.47265625)"/>
<path d="M0 0 C3.07042974 2.2053202 5.01837706 4.86878538 6.69140625 8.21484375 C7.51808921 15.22983914 6.94808274 20.08128384 2.78515625 25.8515625 C2.42421875 26.30144531 2.06328125 26.75132813 1.69140625 27.21484375 C2.30628906 27.48425781 2.92117187 27.75367187 3.5546875 28.03125 C7.481962 30.20668724 9.31017701 34.07115603 10.69140625 38.21484375 C11.25571198 44.76079019 10.16954147 49.58971149 6.69140625 55.21484375 C2.62306834 59.92314492 -2.34894132 61.89904957 -8.45703125 62.55078125 C-16.41666748 62.64714488 -22.21746324 62.16242582 -28.08984375 56.49609375 C-33.07405381 50.9476335 -33.65116801 46.55259105 -33.59765625 39.16796875 C-33.21497085 35.25837194 -31.91220228 33.11600754 -29.30859375 30.21484375 C-28.77234375 29.59609375 -28.23609375 28.97734375 -27.68359375 28.33984375 C-26.30859375 27.21484375 -26.30859375 27.21484375 -24.30859375 27.21484375 C-25.11296875 26.24546875 -25.91734375 25.27609375 -26.74609375 24.27734375 C-29.71657572 20.08820251 -30.60770563 16.32693767 -30.30859375 11.21484375 C-28.38874351 4.43890171 -25.01080744 1.37446841 -19.05859375 -2.09765625 C-12.25734491 -3.79796846 -6.14086103 -3.48602414 0 0 Z M-17.43359375 11.33984375 C-18.54427607 14.98922852 -17.82466721 16.78373013 -16.30859375 20.21484375 C-11.50920643 21.30262227 -11.50920643 21.30262227 -6.87109375 20.15234375 C-5.04372941 18.23424464 -5.04372941 18.23424464 -4.93359375 15.21484375 C-5.10362085 12.0378217 -5.10362085 12.0378217 -7.30859375 9.21484375 C-12.99528434 8.33671177 -12.99528434 8.33671177 -17.43359375 11.33984375 Z M-18.93359375 34.65234375 C-20.9945421 38.49320205 -21.0681793 41.95490002 -20.30859375 46.21484375 C-18.20726541 49.5769691 -16.73075864 50.08975786 -12.93359375 51.21484375 C-8.47190891 51.21484375 -6.69257267 50.03482618 -3.30859375 47.21484375 C-1.75834911 44.11435447 -2.0186736 41.63590157 -2.30859375 38.21484375 C-3.49441475 35.10739833 -3.49441475 35.10739833 -6.30859375 33.21484375 C-10.88320836 32.3485546 -14.81702127 32.39803025 -18.93359375 34.65234375 Z " fill="#0688CB" transform="translate(160.30859375,74.78515625)"/>
<path d="M0 0 C4.60313813 3.16372034 8.6322747 6.35813312 10 12 C8.59248779 12.86916887 7.1735479 13.71985149 5.75 14.5625 C4.96109375 15.03816406 4.1721875 15.51382813 3.359375 16.00390625 C1 17 1 17 -1.1328125 16.77734375 C-3.81859111 15.65920579 -5.78677041 13.86377228 -8 12 C-12.419437 9.7902815 -18.18947187 10.5844921 -23 11 C-28.07360306 13.27437378 -29.97479798 15.88370016 -32 21 C-34.12709967 26.99455362 -33.18629346 33.08390337 -31.02734375 38.9140625 C-29.28450664 42.45275078 -27.39216635 44.02637594 -24 46 C-18.07699927 47.47586322 -12.66347006 47.44306552 -7 45 C-4.1020938 42.52140971 -4.1020938 42.52140971 -2 40 C2.61513112 41.31860889 6.09897612 43.21355437 10 46 C7.04064323 52.10367335 1.59643048 57.1000888 -4.5625 59.9375 C-12.1113325 62.34415749 -22.80017746 62.61963869 -30.09765625 59.234375 C-38.01983912 54.09390316 -43.587046 48.28844326 -46.5703125 39.27734375 C-48.64274325 28.2934608 -47.78435909 17.15750273 -41.52734375 7.796875 C-31.36712404 -5.17361824 -14.21903194 -7.34578387 0 0 Z " fill="#0788CA" transform="translate(47,76)"/>
<path d="M0 0 C4.23329408 4.17342932 6.40256131 7.85177455 6.73046875 13.921875 C6.74790583 16.89315323 6.69408897 19.84443778 6.5625 22.8125 C-0.92972513 23.56847227 -8.28954607 23.89447514 -15.8203125 23.75 C-18.41981327 23.62626798 -18.41981327 23.62626798 -20.4375 24.8125 C-18.03438219 27.03076259 -16.73824854 27.78117203 -13.4375 28.125 C-10.50602681 28.00924057 -10.50602681 28.00924057 -8.4375 26.75 C-5.46904956 25.35853886 -3.55599165 25.98514507 -0.4375 26.8125 C2.4375 28.375 2.4375 28.375 4.5625 29.8125 C4.3098068 33.22385826 3.32745524 34.03187511 0.75 36.4375 C-5.88278249 41.37957323 -11.23933137 41.58813512 -19.4375 40.8125 C-25.70409482 39.12183548 -29.87749596 35.11737444 -33.4375 29.8125 C-36.49285115 23.8406773 -36.5388177 15.93198584 -34.8203125 9.50390625 C-32.15478722 3.45339976 -27.33925109 -1.47916574 -21.26953125 -4.13671875 C-13.55228235 -6.28115782 -6.23284344 -5.06846609 0 0 Z M-19.875 9.8125 C-20.390625 10.4725 -20.90625 11.1325 -21.4375 11.8125 C-21.1075 12.4725 -20.7775 13.1325 -20.4375 13.8125 C-15.8175 13.8125 -11.1975 13.8125 -6.4375 13.8125 C-7.0114739 9.61069816 -7.0114739 9.61069816 -10.4375 7.8125 C-15.58686667 7.23854839 -15.58686667 7.23854839 -19.875 9.8125 Z " fill="#0788CA" transform="translate(118.4375,96.1875)"/>
<path d="M0 0 C0.77419785 0.00142502 1.54839569 0.00285004 2.34605408 0.00431824 C3.66235558 -0.00029671 3.66235558 -0.00029671 5.00524902 -0.00500488 C6.42872902 0.00577339 6.42872902 0.00577339 7.88096619 0.01676941 C8.85239059 0.01722763 9.823815 0.01768585 10.82467651 0.01815796 C12.87999186 0.02118192 14.93530489 0.0290725 16.99058533 0.04142761 C20.14878899 0.05968312 23.30669966 0.06193735 26.46495056 0.06169128 C28.45779166 0.06660634 30.45063075 0.07243461 32.44346619 0.07926941 C33.86998253 0.08093864 33.86998253 0.08093864 35.32531738 0.0826416 C36.19969955 0.08902145 37.07408173 0.09540131 37.97496033 0.10197449 C39.13506371 0.10769218 39.13506371 0.10769218 40.31860352 0.11352539 C42.09580994 0.24723816 42.09580994 0.24723816 43.09580994 1.24723816 C43.16825047 3.26688015 43.17958182 5.28890939 43.15830994 7.30973816 C43.1492865 8.41446472 43.14026306 9.51919128 43.13096619 10.65739441 C43.11936462 11.51204285 43.10776306 12.36669128 43.09580994 13.24723816 C39.30313801 14.18327236 36.15906428 14.23000068 32.28330994 13.80973816 C30.81957947 13.65698425 30.81957947 13.65698425 29.32627869 13.50114441 C28.590224 13.41735535 27.85416931 13.33356628 27.09580994 13.24723816 C27.10247177 13.81686783 27.10913361 14.3864975 27.11599731 14.97338867 C27.18229112 20.89412297 27.22758561 26.81475209 27.26060486 32.73576355 C27.27570519 34.94641908 27.29618703 37.15704459 27.3221283 39.36759949 C27.35845648 42.54239809 27.37552377 45.71680113 27.38877869 48.89176941 C27.40426254 49.8824794 27.4197464 50.87318939 27.43569946 51.8939209 C27.43592606 52.8146489 27.43615265 53.73537689 27.43638611 54.68400574 C27.44304794 55.49452896 27.44970978 56.30505219 27.45657349 57.14013672 C27.00336571 59.78717452 26.19036943 60.61427768 24.09580994 62.24723816 C19.57506323 64.2127802 18.14683937 64.25744405 13.09580994 63.24723816 C13.09580994 47.07723816 13.09580994 30.90723816 13.09580994 14.24723816 C8.47580994 14.24723816 3.85580994 14.24723816 -0.90419006 14.24723816 C-1.56419006 13.91723816 -2.22419006 13.58723816 -2.90419006 13.24723816 C-3.38856506 10.81364441 -3.38856506 10.81364441 -3.65419006 7.80973816 C-3.75215881 6.82102722 -3.85012756 5.83231628 -3.95106506 4.81364441 C-3.89362823 1.66897768 -3.24229793 0.42097676 0 0 Z " fill="#FDFDFD" transform="translate(266.90419006347656,71.75276184082031)"/>
<path d="M0 0 C1.81975482 5.12839994 -0.1400901 9.17684382 -2 14 C-2.928125 13.938125 -3.85625 13.87625 -4.8125 13.8125 C-7.92279532 13.70093711 -7.92279532 13.70093711 -9.67417908 15.25718689 C-11.28376111 17.37300858 -11.3819615 18.43698348 -11.40063477 21.07250977 C-11.41397354 21.88667862 -11.42731232 22.70084747 -11.4410553 23.53968811 C-11.44117111 24.4147551 -11.44128693 25.28982208 -11.44140625 26.19140625 C-11.45461411 27.0924559 -11.46782196 27.99350555 -11.48143005 28.92185974 C-11.52236367 31.80210471 -11.54401236 34.68202967 -11.5625 37.5625 C-11.58625493 40.44644404 -11.61431412 43.33008517 -11.65428162 46.21385193 C-11.67871367 48.00888002 -11.69351109 49.80406941 -11.69789124 51.59925842 C-11.77546627 57.77546627 -11.77546627 57.77546627 -14 60 C-18.00554104 61.1444403 -21.85976351 61.02919086 -26 61 C-26.02312821 53.32463373 -26.04091753 45.64927104 -26.05181217 37.97387791 C-26.05703995 34.41022578 -26.06413569 30.84659743 -26.07543945 27.28295898 C-26.08834176 23.18993903 -26.09322906 19.0969442 -26.09765625 15.00390625 C-26.10281754 13.71851456 -26.10797882 12.43312286 -26.11329651 11.10877991 C-26.11337204 9.92763107 -26.11344757 8.74648224 -26.11352539 7.52954102 C-26.115746 6.48363297 -26.11796661 5.43772491 -26.12025452 4.36012268 C-26 2 -26 2 -25 1 C-22.98035801 0.92755947 -20.95832876 0.91622812 -18.9375 0.9375 C-17.28041016 0.95103516 -17.28041016 0.95103516 -15.58984375 0.96484375 C-14.73519531 0.97644531 -13.88054687 0.98804687 -13 1 C-13 1.66 -13 2.32 -13 3 C-11.783125 2.505 -10.56625 2.01 -9.3125 1.5 C-6.07513262 0.27520559 -3.49900643 -0.32803185 0 0 Z " fill="#0988C9" transform="translate(84,91)"/>
<path d="M0 0 C1.3303125 0.00773437 1.3303125 0.00773437 2.6875 0.015625 C3.574375 0.01046875 4.46125 0.0053125 5.375 0 C7.6875 0.265625 7.6875 0.265625 9.6875 2.265625 C9.94819641 4.64988708 9.94819641 4.64988708 9.9621582 7.67749023 C9.97169022 8.80883896 9.98122223 9.94018768 9.99104309 11.1058197 C9.99013168 12.33289139 9.98922028 13.55996307 9.98828125 14.82421875 C9.99256638 16.07944839 9.9968515 17.33467804 10.00126648 18.62794495 C10.00701898 21.28701706 10.00843459 23.94570217 10.00317383 26.60473633 C9.99738048 30.01244337 10.01430391 33.41960665 10.0375185 36.82722378 C10.05579349 40.07621822 10.0520706 43.32518213 10.05078125 46.57421875 C10.059991 47.7992662 10.06920074 49.02431366 10.07868958 50.28648376 C10.07246078 51.42098465 10.06623199 52.55548553 10.05981445 53.72436523 C10.06044388 54.72426987 10.0610733 55.7241745 10.0617218 56.75437927 C9.62538219 59.68247163 9.03554243 60.52503892 6.6875 62.265625 C2.8432401 63.85347148 -0.19027131 64.35645377 -4.3125 64.265625 C-4.35878835 56.21638517 -4.39435126 48.16720071 -4.41612434 40.11786079 C-4.42657298 36.3804467 -4.4407517 32.6431235 -4.46337891 28.90576172 C-4.48506904 25.30072 -4.49706049 21.69576583 -4.50225449 18.09066391 C-4.50595716 16.71350602 -4.51318734 15.33635306 -4.52396011 13.95923233 C-4.53842335 12.03422955 -4.53931648 10.10913913 -4.53955078 8.18408203 C-4.543992 7.08709991 -4.54843323 5.9901178 -4.55300903 4.8598938 C-4.23655684 1.44645835 -3.45241807 0.39656154 0 0 Z " fill="#FDFEFE" transform="translate(193.3125,71.734375)"/>
<path d="M0 0 C1.65 0 3.3 0 5 0 C5 0.66 5 1.32 5 2 C8.04913228 3.01111093 8.04913228 3.01111093 11 2 C11.33 4.31 11.66 6.62 12 9 C12.78375 8.938125 13.5675 8.87625 14.375 8.8125 C15.24125 8.874375 16.1075 8.93625 17 9 C19 12 19 12 18.9375 14.5 C18 17 18 17 16.03125 18.63671875 C11.81711192 20.53199477 8.12741213 20.40035435 3.5625 20.3125 C2.72912109 20.31572266 1.89574219 20.31894531 1.03710938 20.32226562 C-3.69361812 20.28112886 -7.5572094 19.81323649 -12 18 C-12.33 16.35 -12.66 14.7 -13 13 C-12.34 13 -11.68 13 -11 13 C-11.226875 12.401875 -11.45375 11.80375 -11.6875 11.1875 C-12 9 -12 9 -10.8125 7.3125 C-9 6 -9 6 -6.875 5.5 C-6.25625 5.335 -5.6375 5.17 -5 5 C-4.67 4.01 -4.34 3.02 -4 2 C-2.68 2 -1.36 2 0 2 C0 1.34 0 0.68 0 0 Z " fill="#0288CE" transform="translate(92,61)"/>
<path d="M0 0 C2.09765625 0.34765625 2.09765625 0.34765625 4.16015625 1.97265625 C5.39532641 5.10175399 5.64300005 7.00742546 5.09765625 10.34765625 C3.43098958 12.01432292 1.76432292 13.68098958 0.09765625 15.34765625 C-0.78761484 19.03207129 -0.78761484 19.03207129 -0.90234375 22.34765625 C-1.79953125 22.37859375 -1.79953125 22.37859375 -2.71484375 22.41015625 C-5.28159014 23.23143558 -5.28159014 23.23143558 -6.52734375 26.59765625 C-6.98109375 27.83515625 -7.43484375 29.07265625 -7.90234375 30.34765625 C-8.29421875 31.31703125 -8.68609375 32.28640625 -9.08984375 33.28515625 C-9.49203125 34.30609375 -9.49203125 34.30609375 -9.90234375 35.34765625 C-10.56234375 35.34765625 -11.22234375 35.34765625 -11.90234375 35.34765625 C-13.010963 32.06999933 -12.83168901 30.39456106 -11.46875 27.23828125 C-11.14970703 26.48417969 -10.83066406 25.73007812 -10.50195312 24.953125 C-10.15970703 24.17582031 -9.81746094 23.39851563 -9.46484375 22.59765625 C-8.95727539 21.40849609 -8.95727539 21.40849609 -8.43945312 20.1953125 C-7.60388393 18.24172819 -6.75443933 16.29408905 -5.90234375 14.34765625 C-6.89234375 14.01765625 -7.88234375 13.68765625 -8.90234375 13.34765625 C-10.78734766 10.80290097 -10.91023033 9.47647044 -10.71484375 6.28515625 C-9.02869164 0.18906785 -5.80294159 -0.21702058 0 0 Z " fill="#0F8AC5" transform="translate(97.90234375,-0.34765625)"/>
<path d="M0 0 C5.36175694 1.68982118 8.87978641 4.25727534 12 9 C13.28282363 11.56564725 13.20391953 13.51033069 13.25 16.375 C13.27578125 17.33148438 13.3015625 18.28796875 13.328125 19.2734375 C12.95439914 22.37892147 12.06626291 23.70536066 10 26 C9.87625 25.030625 9.7525 24.06125 9.625 23.0625 C9.41875 22.051875 9.2125 21.04125 9 20 C8.34 19.67 7.68 19.34 7 19 C6.67 19.99 6.34 20.98 6 22 C5.34 21.34 4.68 20.68 4 20 C4.66 19.01 5.32 18.02 6 17 C5.01 17 4.02 17 3 17 C2.87625 18.1446875 2.87625 18.1446875 2.75 19.3125 C2 22 2 22 0.5 23.8125 C-3.26487195 25.60081417 -6.90126405 25.23646554 -11 25 C-13.48887372 20.31506124 -12.85687773 17.0555786 -12 12 C-7.91100593 10.63700198 -3.90349791 10.62046091 0.3828125 10.37890625 C1.24648437 10.25386719 2.11015625 10.12882812 3 10 C3.33 9.34 3.66 8.68 4 8 C2.68 8.33 1.36 8.66 0 9 C-1 4.25 -1 4.25 -1 2 C-4.96 2 -8.92 2 -13 2 C-8.71525493 -0.85649671 -5.02877493 -0.60345299 0 0 Z M-11.125 14.125 C-12.23568232 17.77438477 -11.51607346 19.56888638 -10 23 C-5.20061268 24.08777852 -5.20061268 24.08777852 -0.5625 22.9375 C1.26486434 21.01940089 1.26486434 21.01940089 1.375 18 C1.2049729 14.82297795 1.2049729 14.82297795 -1 12 C-6.68669059 11.12186802 -6.68669059 11.12186802 -11.125 14.125 Z " fill="#0A87C7" transform="translate(154,72)"/>
<path d="M0 0 C1.65 0 3.3 0 5 0 C6.84651134 3.11598788 7.38079379 5.38245897 7 9 C4.4345406 11.5654594 2.52313332 11.54046087 -1 12 C-1 11.34 -1 10.68 -1 10 C-1.66 10 -2.32 10 -3 10 C-3.1875 7.125 -3.1875 7.125 -3 4 C-2.01 3.34 -1.02 2.68 0 2 C0 1.34 0 0.68 0 0 Z " fill="#048ACB" transform="translate(140,24)"/>
<path d="M0 0 C1.5625 1.1875 1.5625 1.1875 3 3 C3 5.5 3 5.5 2 8 C-2.48688404 11.72278102 -6.89787306 11.4191133 -12.4375 11.3125 C-13.27087891 11.31572266 -14.10425781 11.31894531 -14.96289062 11.32226562 C-19.6298991 11.28168294 -23.70502485 11.0351784 -28 9 C-28.33 8.01 -28.66 7.02 -29 6 C-27.02 6 -25.04 6 -23 6 C-23 6.66 -23 7.32 -23 8 C-15.74 8.33 -8.48 8.66 -1 9 C-1 8.34 -1 7.68 -1 7 C-0.34 7 0.32 7 1 7 C0.67 4.69 0.34 2.38 0 0 Z " fill="#1C88B1" transform="translate(108,70)"/>
<path d="M0 0 C0.66 0.33 1.32 0.66 2 1 C1.01 2.32 0.02 3.64 -1 5 C-0.05125 4.79375 0.8975 4.5875 1.875 4.375 C3.421875 4.189375 3.421875 4.189375 5 4 C5.66 4.66 6.32 5.32 7 6 C6.625 8.125 6.625 8.125 6 10 C5.34 8.68 4.68 7.36 4 6 C3.38125 6.309375 2.7625 6.61875 2.125 6.9375 C0.75 7.625 -0.625 8.3125 -2 9 C-2 10.65 -2 12.3 -2 14 C-1.34 14.33 -0.68 14.66 0 15 C-0.99 15 -1.98 15 -3 15 C-4.35278115 13.01310269 -5.68568305 11.01254782 -7 9 C-7.99 8.67 -8.98 8.34 -10 8 C-10 7.34 -10 6.68 -10 6 C-11.65 6 -13.3 6 -15 6 C-15 5.67 -15 5.34 -15 5 C-14.41992188 5.05800781 -13.83984375 5.11601563 -13.2421875 5.17578125 C-8.79502351 5.43263066 -5.92918765 5.47253985 -2.4375 2.5 C-1.633125 1.675 -0.82875 0.85 0 0 Z " fill="#2088BC" transform="translate(107,55)"/>
<path d="M0 0 C1.98 0.495 1.98 0.495 4 1 C4 1.66 4 2.32 4 3 C4.7425 3.0825 5.485 3.165 6.25 3.25 C9.54302595 4.14809799 10.85976788 5.38416074 13 8 C13 8.66 13 9.32 13 10 C9 10 9 10 6.75 8 C6.1725 7.34 5.595 6.68 5 6 C5 7.65 5 9.3 5 11 C4.01 11.495 4.01 11.495 3 12 C0.5007065 9.8267013 -0.60976535 8.31699452 -1 5 C-0.5625 2.25 -0.5625 2.25 0 0 Z " fill="#0389CD" transform="translate(50,34)"/>
<path d="M0 0 C0.99386719 0.00902344 1.98773438 0.01804687 3.01171875 0.02734375 C4.15060547 0.04474609 4.15060547 0.04474609 5.3125 0.0625 C5.42065225 1.83199095 5.49816083 3.60337487 5.5625 5.375 C5.60890625 6.36113281 5.6553125 7.34726563 5.703125 8.36328125 C5.3125 11.0625 5.3125 11.0625 3.59375 12.90625 C1.00458133 14.21856837 -0.55725445 14.37706966 -3.4375 14.25 C-4.23671875 14.22292969 -5.0359375 14.19585937 -5.859375 14.16796875 C-6.46265625 14.13316406 -7.0659375 14.09835938 -7.6875 14.0625 C-10.17637372 9.37756124 -9.54437773 6.1180786 -8.6875 1.0625 C-5.53819107 0.01273036 -3.29935544 -0.03881595 0 0 Z M-7.8125 3.1875 C-8.92318232 6.83688477 -8.20357346 8.63138638 -6.6875 12.0625 C-1.88811268 13.15027852 -1.88811268 13.15027852 2.75 12 C4.57736434 10.08190089 4.57736434 10.08190089 4.6875 7.0625 C4.5174729 3.88547795 4.5174729 3.88547795 2.3125 1.0625 C-3.37419059 0.18436802 -3.37419059 0.18436802 -7.8125 3.1875 Z " fill="#2187B5" transform="translate(150.6875,82.9375)"/>
<path d="M0 0 C4.44152513 1.51280135 7.79409341 3.57840551 11 7 C10.67 7.66 10.34 8.32 10 9 C8.68 8.01 7.36 7.02 6 6 C5.38125 6.309375 4.7625 6.61875 4.125 6.9375 C2.75 7.625 1.375 8.3125 0 9 C-1 4.25 -1 4.25 -1 2 C-4.96 2 -8.92 2 -13 2 C-8.72227611 -0.85181593 -5.02210358 -0.61661923 0 0 Z " fill="#1B85BB" transform="translate(154,72)"/>
<path d="M0 0 C4.32157721 2.9199846 6.8653296 5.89398318 8 11 C8.23111493 15.01436588 8.17803118 18.9844079 8 23 C4.37 23.33 0.74 23.66 -3 24 C-3 23.34 -3 22.68 -3 22 C0.3 22 3.6 22 7 22 C6.71561048 20.10306139 6.42216208 18.20747973 6.125 16.3125 C5.96257812 15.25675781 5.80015625 14.20101562 5.6328125 13.11328125 C5.03237755 10.15928956 4.38062281 7.67918063 3 5 C2.01 4.67 1.02 4.34 0 4 C0 2.68 0 1.36 0 0 Z " fill="#2485AF" transform="translate(117,96)"/>
<path d="M0 0 C0.6875 2.3125 0.6875 2.3125 1 5 C-0.3125 6.8125 -0.3125 6.8125 -2 8 C-2.66 8 -3.32 8 -4 8 C-4 9.32 -4 10.64 -4 12 C-4.99 12 -5.98 12 -7 12 C-7 11.01 -7 10.02 -7 9 C-7.99 9.495 -7.99 9.495 -9 10 C-7.6834994 5.81113445 -4.97532335 0 0 0 Z " fill="#0288C6" transform="translate(13,78)"/>
<path d="M0 0 C0.66 0 1.32 0 2 0 C3.04892238 1.63631892 4.04906703 3.30485863 5 5 C6.96822886 6.96822886 10.34808709 6.66248381 13 7 C13.33 7.99 13.66 8.98 14 10 C17.96 10.33 21.92 10.66 26 11 C26 11.33 26 11.66 26 12 C11.2192751 12.81113734 11.2192751 12.81113734 5 8 C3.00840931 6.0865109 1.59438322 4.29192588 0 2 C0 1.34 0 0.68 0 0 Z " fill="#2886B4" transform="translate(86,125)"/>
<path d="M0 0 C0.66 0.99 1.32 1.98 2 3 C1.34 3.66 0.68 4.32 0 5 C-0.46396693 7.89223503 -0.46396693 7.89223503 -0.625 11.125 C-0.69976562 12.22070312 -0.77453125 13.31640625 -0.8515625 14.4453125 C-0.90054688 15.28835937 -0.94953125 16.13140625 -1 17 C-0.34 17 0.32 17 1 17 C1 18.98 1 20.96 1 23 C-1.95599125 20.30105147 -2.90167008 18.32745395 -3.203125 14.2578125 C-3.21859375 13.22398438 -3.2340625 12.19015625 -3.25 11.125 C-3.28867188 9.58199219 -3.28867188 9.58199219 -3.328125 8.0078125 C-2.95911067 4.6251811 -1.93550508 2.76064146 0 0 Z " fill="#2683B5" transform="translate(130,106)"/>
<path d="M0 0 C3.465 1.485 3.465 1.485 7 3 C7 3.99 7 4.98 7 6 C7.66 6 8.32 6 9 6 C9 6.66 9 7.32 9 8 C8.01 8.33 7.02 8.66 6 9 C4.62804426 10.29355827 3.28817344 11.62298702 2 13 C2.06510417 10.98177083 2.13020833 8.96354167 2.1953125 6.9453125 C2.18331689 4.76136355 2.18331689 4.76136355 0 3 C0 2.01 0 1.02 0 0 Z " fill="#0488CB" transform="translate(72,50)"/>
<path d="M0 0 C0.33 0.66 0.66 1.32 1 2 C1.66 2.28875 2.32 2.5775 3 2.875 C5 4 5 4 5.75 6.125 C5.87375 7.053125 5.87375 7.053125 6 8 C5.01 8 4.02 8 3 8 C3 7.34 3 6.68 3 6 C1.68 5.67 0.36 5.34 -1 5 C-0.67 5.99 -0.34 6.98 0 8 C-0.99 8.66 -1.98 9.32 -3 10 C-4 9 -4 9 -4.0625 6.4375 C-4.041875 5.633125 -4.02125 4.82875 -4 4 C-2.68 3.34 -1.36 2.68 0 2 C0 1.34 0 0.68 0 0 Z " fill="#048ACF" transform="translate(47,23)"/>
<path d="M0 0 C1.5 1.3125 1.5 1.3125 3 3 C3 3.99 3 4.98 3 6 C4.32 6 5.64 6 7 6 C7.33 7.32 7.66 8.64 8 10 C7.38125 10.12375 6.7625 10.2475 6.125 10.375 C3.80879168 10.87197356 3.80879168 10.87197356 2 13 C1.855625 12.2575 1.71125 11.515 1.5625 10.75 C1.2840625 9.38875 1.2840625 9.38875 1 8 C0.855625 7.2575 0.71125 6.515 0.5625 5.75 C0.376875 5.1725 0.19125 4.595 0 4 C-0.66 3.67 -1.32 3.34 -2 3 C-2 2.34 -2 1.68 -2 1 C-1.34 0.67 -0.68 0.34 0 0 Z " fill="#0289D2" transform="translate(93,2)"/>
<path d="M0 0 C3.10966084 1.72023791 6.04563582 3.55938273 8.9375 5.625 C8.2775 6.945 7.6175 8.265 6.9375 9.625 C6.710625 9.026875 6.48375 8.42875 6.25 7.8125 C4.55123148 4.98121913 2.92784445 3.97777487 -0.0625 2.625 C-2.2560345 2.6103761 -2.2560345 2.6103761 -4.0625 3.625 C-5.0525 5.11 -5.0525 5.11 -6.0625 6.625 C-7.3825 6.295 -8.7025 5.965 -10.0625 5.625 C-4.20062326 -0.51436203 -4.20062326 -0.51436203 0 0 Z " fill="#2386B0" transform="translate(48.0625,116.375)"/>
<path d="M0 0 C0.33 0.99 0.66 1.98 1 3 C-0.32 4.32 -1.64 5.64 -3 7 C-3.28875 6.360625 -3.5775 5.72125 -3.875 5.0625 C-4.82823451 2.84793921 -4.82823451 2.84793921 -7 2 C-7 2.66 -7 3.32 -7 4 C-7.99 4 -8.98 4 -10 4 C-10 4.66 -10 5.32 -10 6 C-10.66 6 -11.32 6 -12 6 C-10.63016497 2.83884224 -10.0109362 2.0072908 -7 0 C-3.95978307 -1.04507457 -3.1804936 -1.06016453 0 0 Z " fill="#0789CD" transform="translate(137,39)"/>
<path d="M0 0 C0.99 0.99 1.98 1.98 3 3 C2 6 2 6 0.29296875 7.203125 C-0.40183594 7.54859375 -1.09664062 7.8940625 -1.8125 8.25 C-2.49957031 8.60578125 -3.18664063 8.9615625 -3.89453125 9.328125 C-6.39725346 10.12676734 -7.57930798 9.96725326 -10 9 C-11.75 6.9375 -11.75 6.9375 -13 5 C-11.68 5.33 -10.36 5.66 -9 6 C-9 6.66 -9 7.32 -9 8 C-7.576875 7.505 -7.576875 7.505 -6.125 7 C-3 6 -3 6 -1 6 C-0.67 4.02 -0.34 2.04 0 0 Z " fill="#2087B6" transform="translate(54,83)"/>
<path d="M0 0 C1.32 0.33 2.64 0.66 4 1 C4 2.98 4 4.96 4 7 C1.69 7.66 -0.62 8.32 -3 9 C-2.01 6.03 -1.02 3.06 0 0 Z " fill="#0489CF" transform="translate(109,51)"/>
<path d="M0 0 C1.32 0.33 2.64 0.66 4 1 C3.01 1.66 2.02 2.32 1 3 C0.26393501 6.56769552 0.26393501 6.56769552 0 10 C-1.65 10 -3.3 10 -5 10 C-4.34 7.69 -3.68 5.38 -3 3 C-2.34 3 -1.68 3 -1 3 C-0.67 2.01 -0.34 1.02 0 0 Z " fill="#0C8AC9" transform="translate(97,12)"/>
<path d="M0 0 C0.99 0.33 1.98 0.66 3 1 C2.34 2.65 1.68 4.3 1 6 C1.66 6 2.32 6 3 6 C2.67 7.32 2.34 8.64 2 10 C0.68 9.67 -0.64 9.34 -2 9 C-2.25 3.375 -2.25 3.375 0 0 Z " fill="#0188D2" transform="translate(94,98)"/>
<path d="M0 0 C4.3890815 0.51035831 7.33708062 1.52214277 11 4 C10.625 5.9375 10.625 5.9375 10 8 C9.01 8.495 9.01 8.495 8 9 C8 7.68 8 6.36 8 5 C5.525 4.01 5.525 4.01 3 3 C3 2.34 3 1.68 3 1 C2.01 0.67 1.02 0.34 0 0 Z " fill="#1C85B5" transform="translate(112,122)"/>
<path d="M0 0 C1.65 0 3.3 0 5 0 C3.60812281 3.36370321 2.20568604 5.21906331 -1 7 C-4.25 7.1875 -4.25 7.1875 -7 7 C-6.34 6.34 -5.68 5.68 -5 5 C-3.68 5 -2.36 5 -1 5 C-0.67 3.35 -0.34 1.7 0 0 Z " fill="#1789BF" transform="translate(162,128)"/>
<path d="M0 0 C0.99 0.33 1.98 0.66 3 1 C3.25 3.3125 3.25 3.3125 3 6 C1 7.8125 1 7.8125 -1 9 C-1.66 8.67 -2.32 8.34 -3 8 C-2.67 7.34 -2.34 6.68 -2 6 C-1.34 6 -0.68 6 0 6 C-0.99 4.68 -1.98 3.36 -3 2 C-2.01 1.34 -1.02 0.68 0 0 Z " fill="#0F86C6" transform="translate(117,126)"/>
<path d="M0 0 C0 0.99 0 1.98 0 3 C-0.66 3 -1.32 3 -2 3 C-2 3.66 -2 4.32 -2 5 C-5.63 5 -9.26 5 -13 5 C-13.33 3.68 -13.66 2.36 -14 1 C-13.29875 1.350625 -12.5975 1.70125 -11.875 2.0625 C-8.43664133 3.18370391 -6.4722451 2.90580307 -3 2 C-2.01 1.34 -1.02 0.68 0 0 Z " fill="#1E84B4" transform="translate(156,122)"/>
<path d="M0 0 C1.32 0.66 2.64 1.32 4 2 C3.01 2 2.02 2 1 2 C1 3.32 1 4.64 1 6 C1.99 6 2.98 6 4 6 C4.33 7.65 4.66 9.3 5 11 C4.01 11.495 4.01 11.495 3 12 C0.5007065 9.8267013 -0.60976535 8.31699452 -1 5 C-0.5625 2.25 -0.5625 2.25 0 0 Z " fill="#0B92CC" transform="translate(50,34)"/>
<path d="M0 0 C3.375 -0.125 3.375 -0.125 7 0 C7.66 0.66 8.32 1.32 9 2 C8.01 3.485 8.01 3.485 7 5 C3.34683329 3.75023244 2.21934164 3.32901247 0 0 Z " fill="#1389C2" transform="translate(10,129)"/>
<path d="M0 0 C-0.33 1.98 -0.66 3.96 -1 6 C-1.556875 5.360625 -2.11375 4.72125 -2.6875 4.0625 C-5.22066561 1.80319013 -6.68341424 1.36850953 -10 1 C-10 0.67 -10 0.34 -10 0 C-3.375 -1.125 -3.375 -1.125 0 0 Z " fill="#1B89BB" transform="translate(159,107)"/>
<path d="M0 0 C0 0.99 0 1.98 0 3 C-0.99 3 -1.98 3 -3 3 C-3.33 3.99 -3.66 4.98 -4 6 C-4.66 6 -5.32 6 -6 6 C-6.66 7.32 -7.32 8.64 -8 10 C-8 6.45595664 -7.39010515 5.89732095 -5.125 3.3125 C-4.59132813 2.68988281 -4.05765625 2.06726563 -3.5078125 1.42578125 C-2 0 -2 0 0 0 Z " fill="#2184BB" transform="translate(13,78)"/>
<path d="M0 0 C0.33 1.32 0.66 2.64 1 4 C1.99 3.67 2.98 3.34 4 3 C3.34 5.31 2.68 7.62 2 10 C0.49440461 8.03617993 -0.89131683 6.21736634 -2 4 C-1.0625 1.875 -1.0625 1.875 0 0 Z " fill="#2287B7" transform="translate(82,38)"/>
<path d="M0 0 C2.87398748 2.33511483 3.92491816 3.37431801 4.375 7.125 C4 10 4 10 2 12 C2 9.03 2 6.06 2 3 C1.01 3 0.02 3 -1 3 C-0.67 2.01 -0.34 1.02 0 0 Z " fill="#1E87B3" transform="translate(99,0)"/>
<path d="M0 0 C0.33 0 0.66 0 1 0 C1 1.65 1 3.3 1 5 C0.01 5 -0.98 5 -2 5 C-2.33 5.66 -2.66 6.32 -3 7 C-3 6.34 -3 5.68 -3 5 C-3.66 5 -4.32 5 -5 5 C-5 4.01 -5 3.02 -5 2 C-4.360625 1.855625 -3.72125 1.71125 -3.0625 1.5625 C-1.02454854 1.18992819 -1.02454854 1.18992819 0 0 Z " fill="#0588CE" transform="translate(124,71)"/>
<path d="M0 0 C1.65 0.99 3.3 1.98 5 3 C4.67 3.66 4.34 4.32 4 5 C4 5.99 4 6.98 4 8 C3.67 8.66 3.34 9.32 3 10 C0.59185923 6.48812804 -0.36629408 4.27343092 0 0 Z " fill="#1E8ABE" transform="translate(54,39)"/>
<path d="M0 0 C0.99 0.33 1.98 0.66 3 1 C2.01 1.8971875 2.01 1.8971875 1 2.8125 C-1.3373846 4.87501834 -1.3373846 4.87501834 -1 8 C-1.66 8 -2.32 8 -3 8 C-3.33 8.66 -3.66 9.32 -4 10 C-3.38461538 3.47692308 -3.38461538 3.47692308 -1.4375 1.0625 C-0.7259375 0.5365625 -0.7259375 0.5365625 0 0 Z " fill="#2388B8" transform="translate(82,66)"/>
<path d="M0 0 C0 0.66 0 1.32 0 2 C-6.625 3 -6.625 3 -10 3 C-6.86618053 -0.60389239 -4.59270471 -1.53090157 0 0 Z " fill="#1086C1" transform="translate(137,37)"/>
<path d="M0 0 C0.66 0 1.32 0 2 0 C2.33 1.65 2.66 3.3 3 5 C3.99 5 4.98 5 6 5 C6.33 6.65 6.66 8.3 7 10 C2.78577758 7.11658466 1.23924145 4.95696581 0 0 Z " fill="#2388B5" transform="translate(3,119)"/>
<path d="M0 0 C0.33 0 0.66 0 1 0 C1 2.31 1 4.62 1 7 C1.66 7 2.32 7 3 7 C3 8.98 3 10.96 3 13 C0.75393573 11.22555028 0.04918998 10.41647515 -0.29296875 7.51953125 C-0.25816406 6.62621094 -0.22335938 5.73289062 -0.1875 4.8125 C-0.16042969 3.91144531 -0.13335937 3.01039062 -0.10546875 2.08203125 C-0.07066406 1.39496094 -0.03585938 0.70789063 0 0 Z " fill="#188ABB" transform="translate(128,116)"/>
<path d="M0 0 C1.65 0 3.3 0 5 0 C5.80967438 2.91482778 6.21845993 4.46113217 5.0625 7.3125 C4.5365625 8.1478125 4.5365625 8.1478125 4 9 C3.71125 7.88625 3.4225 6.7725 3.125 5.625 C2.30758671 1.99708908 2.30758671 1.99708908 0 0 Z " fill="#2A81AE" transform="translate(79,91)"/>
<path d="M0 0 C-0.99 0.33 -1.98 0.66 -3 1 C-3 1.66 -3 2.32 -3 3 C-5.31 3.33 -7.62 3.66 -10 4 C-7.39928297 0.98864344 -3.94054294 -1.97027147 0 0 Z " fill="#2184B5" transform="translate(23,74)"/>
<path d="M0 0 C1.37562854 1.28965176 2.70766393 2.62689293 4 4 C4 4.66 4 5.32 4 6 C2.68 6 1.36 6 0 6 C-1.125 2.25 -1.125 2.25 0 0 Z " fill="#1588BE" transform="translate(165,104)"/>
<path d="M0 0 C5.53846154 0.61538462 5.53846154 0.61538462 7.875 2.5625 C8.431875 3.2740625 8.431875 3.2740625 9 4 C6.36 3.67 3.72 3.34 1 3 C0.67 2.01 0.34 1.02 0 0 Z " fill="#1D85B6" transform="translate(108,92)"/>
<path d="M0 0 C3.26460973 1.80412643 4.88929795 2.83394693 7 6 C5.02 6.33 3.04 6.66 1 7 C1.33 5.35 1.66 3.7 2 2 C1.34 2 0.68 2 0 2 C0 1.34 0 0.68 0 0 Z " fill="#1984BF" transform="translate(47,77)"/>
<path d="M0 0 C-5.75 4 -5.75 4 -8 4 C-8 3.34 -8 2.68 -8 2 C-7.34 2 -6.68 2 -6 2 C-6 1.34 -6 0.68 -6 0 C-3.50907189 -1.24546405 -2.58919267 -0.7767578 0 0 Z " fill="#2085B7" transform="translate(50,131)"/>
<path d="M0 0 C0.99 0.99 1.98 1.98 3 3 C2.67 3.99 2.34 4.98 2 6 C-0.5625 7.1875 -0.5625 7.1875 -3 8 C-3 7.34 -3 6.68 -3 6 C-2.34 6 -1.68 6 -1 6 C-0.67 4.02 -0.34 2.04 0 0 Z " fill="#2D82B3" transform="translate(54,83)"/>
<path d="M0 0 C3.63 0 7.26 0 11 0 C11 1.32 11 2.64 11 4 C10.34 4 9.68 4 9 4 C8.67 3.34 8.34 2.68 8 2 C6.10466658 1.53476937 6.10466658 1.53476937 3.9375 1.375 C2.638125 1.25125 1.33875 1.1275 0 1 C0 0.67 0 0.34 0 0 Z " fill="#1D86C1" transform="translate(145,83)"/>
<path d="M0 0 C0 1.65 0 3.3 0 5 C-1.32 5 -2.64 5 -4 5 C-4 3.68 -4 2.36 -4 1 C-2 0 -2 0 0 0 Z " fill="#048AD0" transform="translate(69,73)"/>
<path d="M0 0 C0.66 0 1.32 0 2 0 C1.74438677 2.3431213 1.40729228 4.67843403 1 7 C0.01 7.495 0.01 7.495 -1 8 C-1.125 2.25 -1.125 2.25 0 0 Z " fill="#0489CB" transform="translate(127,61)"/>
<path d="M0 0 C2 1 2 1 4 4 C2.35 4.33 0.7 4.66 -1 5 C-1.33 4.34 -1.66 3.68 -2 3 C-1.34 2.01 -0.68 1.02 0 0 Z " fill="#0986C2" transform="translate(48,125)"/>
<path d="M0 0 C0.33 0.99 0.66 1.98 1 3 C1.66 3 2.32 3 3 3 C3 4.65 3 6.3 3 8 C2.34 8 1.68 8 1 8 C0.34 5.69 -0.32 3.38 -1 1 C-0.67 0.67 -0.34 0.34 0 0 Z " fill="#0488C8" transform="translate(114,59)"/>
<path d="" fill="#5555AA" transform="translate(0,0)"/>
</svg>
