<svg xmlns="http://www.w3.org/2000/svg" viewBox="0 0 24 24" fill="currentColor">
  <path d="M22 5.92c-.64.28-1.33.48-2.05.56.74-.44 1.3-1.14 1.57-1.98-.7.42-1.48.72-2.3.89C18.5 4.6 17.6 4 16.56 4c-1.33 0-2.41 1.08-2.41 2.41 0 .19.02.38.06.56C11.7 6.86 9.1 5.5 7.2 3.5c-.21.36-.33.78-.33 1.22 0 .84.43 1.57 1.08 2-.5-.02-.97-.15-1.38-.38v.04c0 1.18.84 2.17 1.95 2.4-.2.06-.41.09-.63.09-.16 0-.31-.01-.46-.05.31.98 1.2 1.69 2.26 1.71C9.5 12.9 8.02 13.6 6.4 13.6c-.33 0-.66-.02-.98-.08 1.06.68 2.32 1.08 3.67 1.08 4.4 0 6.81-3.65 6.81-6.81v-.31c.47-.34.87-.77 1.19-1.26z"/>
</svg>