<svg xmlns="http://www.w3.org/2000/svg" xmlns:xlink="http://www.w3.org/1999/xlink" width="256" zoomAndPan="magnify" viewBox="0 0 192 191.999996" height="256" preserveAspectRatio="xMidYMid meet" version="1.0"><defs><clipPath id="6dbf6d7958"><path d="M 13 51 L 176 51 L 176 168.304688 L 13 168.304688 Z M 13 51 " clip-rule="nonzero"/></clipPath></defs><g clip-path="url(#6dbf6d7958)"><path fill="#0089cf" d="M 16.359375 87.886719 C 14.195312 89.511719 13.472656 92.039062 14.375 94.566406 L 41.597656 166.625 C 42.136719 167.886719 43.21875 168.609375 44.480469 168.609375 C 44.660156 168.609375 44.84375 168.609375 45.023438 168.429688 C 46.464844 168.609375 47.90625 168.066406 48.449219 166.625 L 65.214844 129.058594 L 82.160156 142.421875 C 81.796875 143.144531 81.4375 143.6875 81.257812 144.410156 L 77.832031 144.410156 C 71.703125 144.410156 66.65625 149.46875 66.65625 155.605469 L 66.65625 156.691406 C 66.65625 162.832031 71.703125 167.886719 77.832031 167.886719 L 113.886719 167.886719 C 118.574219 167.886719 122.359375 164.09375 122.359375 159.398438 L 122.359375 158.496094 C 122.359375 153.800781 118.574219 150.007812 113.886719 150.007812 L 112.265625 150.007812 C 112.265625 150.007812 112.265625 150.007812 112.265625 149.828125 C 112.265625 146.578125 111.183594 143.507812 109.5625 140.980469 L 124.882812 128.878906 L 141.289062 166.804688 C 141.828125 168.066406 142.910156 168.609375 144.171875 168.609375 C 144.355469 168.609375 144.535156 168.609375 144.714844 168.429688 C 144.894531 168.429688 145.074219 168.609375 145.253906 168.609375 C 146.515625 168.609375 147.777344 167.886719 148.140625 166.625 L 175.359375 94.566406 C 176.261719 92.039062 175.542969 89.511719 173.378906 87.886719 C 171.214844 86.257812 168.511719 86.441406 166.527344 88.066406 L 127.40625 118.945312 L 99.105469 53.933594 C 98.382812 52.488281 96.941406 51.585938 95.320312 51.585938 C 93.875 51.585938 92.253906 52.488281 91.351562 54.113281 L 62.6875 119.128906 L 23.390625 87.886719 C 21.226562 86.257812 18.523438 86.257812 16.359375 87.886719 Z M 169.050781 94.023438 L 144.714844 158.496094 L 130.113281 124.90625 Z M 95.320312 60.796875 L 122.359375 122.917969 L 105.234375 136.464844 C 102.710938 134.839844 99.644531 133.753906 96.402344 133.753906 C 92.433594 133.753906 89.007812 135.199219 86.125 137.546875 L 67.917969 123.101562 Z M 45.382812 158.675781 L 20.867188 94.023438 L 60.164062 125.085938 Z M 45.382812 158.675781 " fill-opacity="1" fill-rule="nonzero"/></g><path fill="#0089cf" d="M 10.230469 88.605469 C 16 88.605469 20.503906 83.910156 20.503906 78.3125 C 20.503906 72.535156 15.816406 68.019531 10.230469 68.019531 C 4.460938 68.019531 -0.046875 72.714844 -0.046875 78.3125 C -0.226562 83.910156 4.460938 88.605469 10.230469 88.605469 Z M 10.230469 88.605469 " fill-opacity="1" fill-rule="nonzero"/><path fill="#0089cf" d="M 96.039062 50.140625 C 103.25 50.140625 109.019531 44.363281 109.019531 37.136719 C 109.019531 29.914062 103.25 24.136719 96.039062 24.136719 C 88.828125 24.136719 83.058594 29.914062 83.058594 37.136719 C 83.058594 44.363281 88.828125 50.140625 96.039062 50.140625 Z M 96.039062 50.140625 " fill-opacity="1" fill-rule="nonzero"/><path fill="#0089cf" d="M 180.949219 89.511719 C 186.71875 89.511719 191.226562 84.816406 191.226562 79.214844 C 191.226562 73.4375 186.539062 68.921875 180.949219 68.921875 C 175.179688 68.921875 170.675781 73.617188 170.675781 79.214844 C 170.675781 84.816406 175.179688 89.511719 180.949219 89.511719 Z M 180.949219 89.511719 " fill-opacity="1" fill-rule="nonzero"/></svg>