<?xml version="1.0" encoding="utf-8"?>
<svg xmlns="http://www.w3.org/2000/svg" id="Layer_1" x="0px" y="0px" viewBox="0 0 310.1 152" style="enable-background:new 0 0 310.1 152;" xmlns:bx="https://boxy-svg.com" width="310.1px" height="152px"><defs><bx:export><bx:file format="svg"/></bx:export></defs><style type="text/css">	.st0{fill:#0089CF;}</style><g transform="matrix(1, 0, 0, 1, 57.967018, 33.931911)"><path class="st0" d="M50.9,35.3c-1.2,0.9-1.6,2.3-1.1,3.7l15.1,39.9c0.3,0.7,0.9,1.1,1.6,1.1c0.1,0,0.2,0,0.3-0.1  c0.8,0.1,1.6-0.2,1.9-1L78,58.1l9.4,7.4c-0.2,0.4-0.4,0.7-0.5,1.1H85c-3.4,0-6.2,2.8-6.2,6.2v0.6c0,3.4,2.8,6.2,6.2,6.2h5.8H93h12  c2.6,0,4.7-2.1,4.7-4.7v-0.5c0-2.6-2.1-4.7-4.7-4.7h-0.9c0,0,0,0,0-0.1c0-1.8-0.6-3.5-1.5-4.9l8.5-6.7l9.1,21c0.3,0.7,0.9,1,1.6,1  c0.1,0,0.2,0,0.3-0.1c0.1,0,0.2,0.1,0.3,0.1c0.7,0,1.4-0.4,1.6-1.1L139.1,39c0.5-1.4,0.1-2.8-1.1-3.7c-1.2-0.9-2.7-0.8-3.8,0.1  l-21.7,17.1l-15.7-36c-0.4-0.8-1.2-1.3-2.1-1.3c-0.8,0-1.7,0.5-2.2,1.4l-15.9,36L54.8,35.3C53.6,34.4,52.1,34.4,50.9,35.3z   M135.6,38.7l-13.5,35.7L114,55.8L135.6,38.7z M94.7,20.3l15,34.4l-9.5,7.5c-1.4-0.9-3.1-1.5-4.9-1.5c-2.2,0-4.1,0.8-5.7,2.1  l-10.1-8L94.7,20.3z M67,74.5L53.4,38.7l21.8,17.2L67,74.5z"/><path class="st0" d="M47.5,35.7c3.2,0,5.7-2.6,5.7-5.7c0-3.2-2.6-5.7-5.7-5.7c-3.2,0-5.7,2.6-5.7,5.7  C41.7,33.1,44.3,35.7,47.5,35.7z"/><path class="st0" d="M95.1,14.4c4,0,7.2-3.2,7.2-7.2S99.1,0,95.1,0s-7.2,3.2-7.2,7.2S91.1,14.4,95.1,14.4z"/><path class="st0" d="M142.2,36.2c3.2,0,5.7-2.6,5.7-5.7c0-3.2-2.6-5.7-5.7-5.7c-3.2,0-5.7,2.6-5.7,5.7S139,36.2,142.2,36.2z"/></g></svg>