<svg xmlns="http://www.w3.org/2000/svg" xmlns:xlink="http://www.w3.org/1999/xlink" id="Layer_1" x="0px" y="0px" viewBox="0 0 310.1 152" style="enable-background:new 0 0 310.1 152;" xml:space="preserve"><style type="text/css">	.st0{fill:#0089CF;}</style><g>	<path class="st0" d="M30.3,84.7c6.9,0,12.1,3.1,15.1,8.1l10.8-5.4c-5.1-8.8-14.4-14.6-25.9-14.6C12.3,72.8,0,86.7,0,104.7  s12.3,31.9,30.3,31.9c11.5,0,20.8-5.7,25.9-14.7l-10.8-5.4c-3,5-8.2,8.1-15.1,8.1c-11.3,0-18.1-8.6-18.1-20S18.9,84.7,30.3,84.7z"></path>	<path class="st0" d="M80.8,92.2c-4,0-7.4,1.7-10,4.4v-3.8H58.9V152l11.9-2.7v-36.9c0-6.3,2.9-9.2,7.1-9.2c1.6,0,2.9,0.4,4,1.1  l2.2-11.9C83.1,92.3,82,92.2,80.8,92.2z"></path>	<path class="st0" d="M104.7,92.2c-12.4,0-21.3,9.7-21.3,22.2c0,12.4,9.4,22.2,21.8,22.2c7.9,0,14.2-3.9,17.8-9.9l-9.8-4.8  c-1.7,2.4-4.5,3.8-7.9,3.8c-4.9,0-8.2-2.9-9.6-7.1h28.7c0.3-1.3,0.4-2.8,0.4-4.3C124.6,101.9,117.1,92.2,104.7,92.2z M95.5,110.3  c1.1-4.3,4.2-7.3,9.2-7.3s7.7,3,8.7,7.3H95.5z"></path>	<path class="st0" d="M160.3,101.2c3.8-2.9,6.5-7.2,6.5-11.9c0-9.8-7.2-16.5-17.9-16.5c-10.5,0-17.9,6.7-17.9,16.5  c0,4.6,2.7,9,6.5,11.9c-5.6,2.2-10.1,8.7-10.1,15.3c0,11.5,8,20,21.4,20c13.6,0,21.4-8.5,21.4-20  C170.3,109.9,166,103.4,160.3,101.2z M148.9,82.8c4.6,0,7.2,3.1,7.2,7s-2.7,7-7.2,7s-7.2-3.1-7.2-7S144.3,82.8,148.9,82.8z   M148.9,126.4c-6.4,0-10-4.6-10-10c0-5.2,3.5-9.7,10-9.7c6.6,0,10,4.6,10,9.7C158.9,121.7,155.4,126.4,148.9,126.4z"></path>	<polygon points="190.2,135.9 202.1,132 202.1,73.4 190.2,73.4  "></polygon>	<path d="M235.6,72.8c-18,0-30.4,13.9-30.4,31.9s12.4,31.9,30.4,31.9s30.3-13.9,30.3-31.9C265.9,86.7,253.6,72.8,235.6,72.8z   M235.6,124.7c-11.4,0-18.2-8.6-18.2-20s6.8-20,18.2-20c11.3,0,18.1,8.6,18.1,20S246.9,124.7,235.6,124.7z"></path>	<polygon points="310.1,73.3 264.6,73.3 264.6,84.8 281.4,84.8 281.4,135.9 293.3,132 293.3,84.8 310.1,84.8  "></polygon>	<path class="st0" d="M50.9,35.3c-1.2,0.9-1.6,2.3-1.1,3.7l15.1,39.9c0.3,0.7,0.9,1.1,1.6,1.1c0.1,0,0.2,0,0.3-0.1  c0.8,0.1,1.6-0.2,1.9-1L78,58.1l9.4,7.4c-0.2,0.4-0.4,0.7-0.5,1.1H85c-3.4,0-6.2,2.8-6.2,6.2v0.6c0,3.4,2.8,6.2,6.2,6.2h5.8H93h12  c2.6,0,4.7-2.1,4.7-4.7v-0.5c0-2.6-2.1-4.7-4.7-4.7h-0.9c0,0,0,0,0-0.1c0-1.8-0.6-3.5-1.5-4.9l8.5-6.7l9.1,21c0.3,0.7,0.9,1,1.6,1  c0.1,0,0.2,0,0.3-0.1c0.1,0,0.2,0.1,0.3,0.1c0.7,0,1.4-0.4,1.6-1.1L139.1,39c0.5-1.4,0.1-2.8-1.1-3.7c-1.2-0.9-2.7-0.8-3.8,0.1  l-21.7,17.1l-15.7-36c-0.4-0.8-1.2-1.3-2.1-1.3c-0.8,0-1.7,0.5-2.2,1.4l-15.9,36L54.8,35.3C53.6,34.4,52.1,34.4,50.9,35.3z   M135.6,38.7l-13.5,35.7L114,55.8L135.6,38.7z M94.7,20.3l15,34.4l-9.5,7.5c-1.4-0.9-3.1-1.5-4.9-1.5c-2.2,0-4.1,0.8-5.7,2.1  l-10.1-8L94.7,20.3z M67,74.5L53.4,38.7l21.8,17.2L67,74.5z"></path>	<path class="st0" d="M47.5,35.7c3.2,0,5.7-2.6,5.7-5.7c0-3.2-2.6-5.7-5.7-5.7c-3.2,0-5.7,2.6-5.7,5.7  C41.7,33.1,44.3,35.7,47.5,35.7z"></path>	<path class="st0" d="M95.1,14.4c4,0,7.2-3.2,7.2-7.2S99.1,0,95.1,0s-7.2,3.2-7.2,7.2S91.1,14.4,95.1,14.4z"></path>	<path class="st0" d="M142.2,36.2c3.2,0,5.7-2.6,5.7-5.7c0-3.2-2.6-5.7-5.7-5.7c-3.2,0-5.7,2.6-5.7,5.7S139,36.2,142.2,36.2z"></path></g></svg>