<svg version="1.0" xmlns="http://www.w3.org/2000/svg" width="512.000000ptpx" height="512.000000ptpx" viewBox="0 0 512.000000 512.000000" preserveAspectRatio="xMidYMid meet" transform="rotate(0) scale(1, 1)">

<g transform="translate(0.000000,512.000000) scale(0.100000,-0.100000)" fill="#ffffff" stroke="none">
<path d="M2525 4856 c-55 -24 -55 -26 -55 -551 0 -550 10 -497 -92 -509 -176&#10;-22 -413 -122 -569 -240 -150 -114 -284 -275 -369 -445 -44 -87 -95 -249 -110&#10;-346 -20 -124 -3 -115 -209 -115 -146 0 -181 3 -191 15 -10 12 -10 36 0 117&#10;66 553 408 1039 905 1288 66 32 166 75 223 93 57 19 112 41 122 50 46 39 31&#10;119 -27 144 -32 13 -41 11 -155 -27 -681 -227 -1168 -837 -1247 -1559 -6 -51&#10;-15 -99 -22 -107 -9 -11 -51 -14 -206 -14 -196 0 -223 -4 -250 -39 -13 -17&#10;-17 -69 -7 -96 17 -43 37 -45 542 -45 368 0 482 -3 493 -12 10 -8 22 -52 32&#10;-108 78 -458 394 -826 837 -974 58 -19 139 -40 180 -46 131 -20 120 0 120&#10;-219 0 -151 -3 -191 -14 -200 -11 -9 -34 -9 -98 -1 -383 52 -721 226 -989 508&#10;-188 197 -315 423 -394 697 -15 56 -33 97 -46 108 -32 26 -85 22 -116 -9 -23&#10;-23 -25 -31 -20 -75 9 -70 78 -271 132 -383 275 -565 810 -948 1434 -1025 46&#10;-6 90 -16 97 -22 11 -9 14 -52 14 -196 0 -205 7 -233 60 -251 38 -14 85 1 103&#10;32 9 15 13 151 17 516 l5 495 25 7 c14 4 64 14 111 22 510 92 918 512 999&#10;1031 7 44 17 86 23 93 7 9 55 12 196 10 l186 -3 -1 -75 c-1 -97 -26 -217 -74&#10;-361 -167 -504 -563 -893 -1078 -1058 -91 -30 -137 -50 -147 -64 -21 -30 -19&#10;-80 6 -111 29 -37 79 -34 223 14 489 165 898 535 1101 998 77 176 135 387 151&#10;557 10 108 3 105 236 105 198 0 199 0 223 25 35 34 34 93 -1 126 l-26 24 -564&#10;0 -563 0 -22 -22 c-18 -17 -23 -39 -30 -120 -12 -126 -25 -188 -61 -293 -213&#10;-610 -945 -901 -1507 -599 -401 215 -625 655 -557 1096 78 513 481 889 984&#10;920 89 5 109 10 131 29 l26 22 3 553 c2 413 -1 561 -9 583 -8 17 -26 34 -45&#10;42 -39 16 -32 16 -69 0z"/>
<path d="M3773 4342 c-98 -93 -253 -246 -345 -340 l-168 -169 0 -235 0 -235&#10;-395 -401 c-439 -445 -428 -430 -365 -494 27 -26 36 -30 68 -25 33 6 82 51&#10;417 387 209 210 387 386 395 391 8 5 118 9 245 9 l229 0 337 336 c196 196 339&#10;346 342 360 5 30 -17 80 -42 93 -12 7 -93 11 -209 11 -170 0 -191 2 -205 18&#10;-15 16 -17 46 -17 210 0 184 -1 192 -22 216 -13 15 -37 29 -55 32 -30 6 -41&#10;-2 -210 -164z m95 -214 c8 -8 12 -47 12 -111 0 -96 1 -99 29 -128 29 -28 32&#10;-29 130 -29 78 0 103 -3 116 -16 9 -9 15 -23 13 -30 -2 -8 -93 -104 -203 -214&#10;l-200 -201 -158 3 c-127 2 -160 6 -167 18 -5 8 -10 85 -10 171 l0 156 191 196&#10;c191 198 216 216 247 185z"/>
<path d="M2455 3290 c-82 -12 -136 -29 -220 -70 -399 -192 -537 -699 -291&#10;-1069 131 -196 343 -318 576 -329 402 -19 735 271 776 674 8 75 1 107 -28 134&#10;-25 23 -84 27 -109 7 -24 -18 -39 -52 -39 -87 0 -57 -32 -174 -68 -250 -64&#10;-136 -199 -246 -349 -285 -67 -18 -190 -19 -265 -4 -155 32 -313 156 -381 300&#10;-105 222 -66 469 101 638 105 107 202 153 354 170 71 8 86 13 105 36 32 37 30&#10;80 -6 116 -32 31 -55 34 -156 19z"/>
</g>
</svg>